<svg xmlns="http://www.w3.org/2000/svg" viewBox="0 0 500 500"><g id="freepik--Shadow--inject-57"><ellipse id="freepik--path--inject-57" cx="250" cy="416.24" rx="193.89" ry="11.32" style="fill:#f5f5f5"></ellipse></g><g id="freepik--Penguin-1--inject-57"><path d="M209.42,239.65C213.3,261.9,233,314.84,224,348.59S203.75,294.65,192.35,288,209.42,239.65,209.42,239.65Z" style="fill:#263238"></path><path d="M219.49,356.91c-4.23,0-8-12.33-13.65-32.63-4.34-15.5-9.24-33.07-13.8-35.71a5.84,5.84,0,0,1-2.75-4c-2.78-12.24,18.7-44,19.62-45.3l.86-1.26.26,1.5c1,5.48,2.88,12.84,5.1,21.35,6.85,26.29,16.25,62.3,9.44,87.86-1.47,5.56-3.09,8.15-5.07,8.16Zm-10.4-115.64c-4,6.12-21,32.67-18.59,43.06a4.64,4.64,0,0,0,2.16,3.17c5,2.9,9.55,19.19,14.37,36.45,4.15,14.87,8.86,31.72,12.46,31.72h0c.73,0,2.21-.95,3.89-7.24,6.71-25.24-2.63-61.07-9.45-87.22C211.9,253.42,210.12,246.6,209.09,241.27Z" style="fill:#263238"></path><path d="M210.45,241.29c4.34,72.19-6.69,160.49-12,171.59-2.42,5-13.22.56-17.69-.93-11.16,1.68-36.29,3.82-57.7,3.82-23.83,0-35.63-.57-33.51-1.87s19.2-6.6,19.36-12.75c.56-22-7.4-41.31-8.28-90.19-.84-46.21,13.4-75.67,22.89-91.58,12-20.19,22.41-26.9,32.23-40.45S182,149.5,195.37,156.76c12.2,6.62,20.23-1.78,31.51.86a1.28,1.28,0,0,1,.24,2.41c-10,4.62-25.34,15.5-29.05,25.59C205.08,192.6,209,217.18,210.45,241.29Z" style="fill:#fff"></path><path d="M123,416.19c-33.63,0-34-1.16-34.15-1.85-.05-.17-.06-.5.42-.8a31.09,31.09,0,0,1,3.12-1.36c5.17-2.1,15.93-6.47,16-11,.24-9.53-1.11-18.48-2.82-29.81A415.59,415.59,0,0,1,100.17,311c-.63-34.82,6.88-64.85,23-91.81,7.38-12.36,14-19.6,20.5-26.6a147.08,147.08,0,0,0,11.75-13.88c5.39-7.42,24.2-31,40.2-22.29,6.89,3.74,12.31,2.62,18.05,1.43,4.17-.86,8.48-1.75,13.36-.61a1.7,1.7,0,0,1,.32,3.2c-9.67,4.45-24.9,15.15-28.75,25.11,8.63,9,11.49,41.94,12.32,55.75,4.28,71.18-6.63,160.46-12.08,171.79-2.34,4.85-11.28,1.71-16.63-.17l-1.47-.51A465.8,465.8,0,0,1,123,416.19Zm-33.14-2c1.47.57,8.71,1.18,33.14,1.18,22.23,0,47.09-2.23,57.64-3.81l.1,0,.1,0,1.58.55c4.75,1.67,13.58,4.77,15.59.6,5.43-11.28,16.27-100.32,12-171.38-1.73-28.78-6.31-49.49-12.26-55.4l-.19-.19.09-.25c3.78-10.26,19.39-21.28,29.28-25.83a.84.84,0,0,0,.49-.87.83.83,0,0,0-.66-.75c-4.69-1.1-8.91-.23-13,.61-5.63,1.17-11.46,2.37-18.62-1.51-15.4-8.37-33.84,14.76-39.12,22.05a151.65,151.65,0,0,1-11.81,13.95c-6.43,7-13.07,14.17-20.4,26.46-16,26.82-23.46,56.7-22.84,91.37a416.06,416.06,0,0,0,5.45,60.25c1.72,11.37,3.08,20.35,2.84,30-.13,5.12-10.82,9.46-16.56,11.79C91.44,413.48,90.39,413.9,89.88,414.17Zm-.23.15Z" style="fill:#263238"></path><path d="M198.07,185.62c7,7,10.93,31.56,12.38,55.67,0,0-3.34,11-35.87,7.13s-37.8-26.11-37.8-26.11,3.63-22.93,61.29-36.69" style="fill:#263238;opacity:0.1"></path><path d="M177.31,260.79c12.58-7.75,28.36-6.08,27.45,3.71S161,270.84,177.31,260.79Z" style="fill:#263238;opacity:0.1"></path><path d="M123,415.77c-23.83,0-35.63-.57-33.51-1.87s19.2-6.6,19.36-12.75c.56-22-7.4-41.31-8.28-90.19-.84-46.21,13.4-75.67,22.89-91.58,12-20.19,22.41-26.9,32.23-40.45S182,149.5,195.37,156.76c12.2,6.62,20.23-1.78,31.51.86a1.28,1.28,0,0,1,.24,2.41c-10,4.62-25.34,15.5-29.05,25.59,0,0,4.6,10.21-18.55,11-16.31.52-29.12,8.58-37,22.89a29.81,29.81,0,0,0-3.34,9.68c-6.37,39.79-32.95,42.44-31.08,80.23s16.75,82,10.61,94.19S123,415.77,123,415.77Z" style="fill:#263238"></path><path d="M123,416.19c-33.63,0-34-1.16-34.15-1.85-.05-.17-.06-.5.42-.8a31.09,31.09,0,0,1,3.12-1.36c5.17-2.1,15.93-6.47,16-11,.24-9.53-1.11-18.48-2.82-29.81A415.59,415.59,0,0,1,100.17,311c-.63-34.82,6.88-64.85,23-91.81,7.38-12.36,14-19.6,20.5-26.6a147.08,147.08,0,0,0,11.75-13.88c5.39-7.42,24.2-31,40.2-22.29,6.89,3.74,12.31,2.62,18.05,1.43,4.17-.86,8.48-1.75,13.36-.61a1.7,1.7,0,0,1,.32,3.2c-9.71,4.47-25,15.22-28.79,25.21a6,6,0,0,1-.6,5.29c-2.32,3.72-8.5,5.77-18.37,6.08-16.11.52-28.77,8.36-36.63,22.69a29.54,29.54,0,0,0-3.28,9.54c-3,18.62-10.54,29.39-17.21,38.89-7.64,10.9-14.86,21.2-13.88,41.25.82,16.61,4.17,34.51,7.13,50.31,3.88,20.77,6.94,37.16,3.44,44.09-2,4-2.43,7.06-1.21,9.06,1.51,2.48,5.08,2.53,5.12,2.53Zm-33.14-2c1.4.54,8,1.12,29.65,1.17a5.54,5.54,0,0,1-2.34-2.07c-1.39-2.28-1-5.6,1.17-9.89,3.38-6.67.18-23.76-3.52-43.55-3-15.83-6.31-33.77-7.13-50.43-1-20.34,6.3-30.75,14-41.77,6.93-9.89,14.11-20.12,17.06-38.55a30.26,30.26,0,0,1,3.38-9.81c8-14.59,20.91-22.59,37.33-23.11,11.91-.39,16.19-3.3,17.68-5.68a5.2,5.2,0,0,0,.49-4.69l-.07-.15.06-.16c3.78-10.26,19.39-21.28,29.28-25.83a.84.84,0,0,0,.49-.87.83.83,0,0,0-.66-.75c-4.69-1.1-8.91-.23-13,.61-5.63,1.17-11.46,2.37-18.62-1.51-15.4-8.37-33.84,14.76-39.12,22.05a151.65,151.65,0,0,1-11.81,13.95c-6.43,7-13.07,14.17-20.4,26.46-16,26.82-23.46,56.7-22.84,91.37a416.06,416.06,0,0,0,5.45,60.25c1.72,11.37,3.08,20.35,2.84,30-.13,5.12-10.82,9.46-16.56,11.79C91.44,413.48,90.39,413.9,89.88,414.17Z" style="fill:#263238"></path><path d="M200.42,404.88c4.34,3.47,19.06,5.23,25.24,10.15.59.47.2,1.31-.6,1.29l-29.82-.51a39,39,0,0,1-14.56-3.5S190.88,397.26,200.42,404.88Z" style="fill:#263238"></path><path d="M225.08,416.74h0l-29.82-.51a39.6,39.6,0,0,1-14.73-3.55l-.43-.21.27-.4c.24-.35,5.9-8.59,12.87-9.65a9.31,9.31,0,0,1,7.47,2.14h0c1.92,1.53,6.08,2.76,10.49,4.06,5.31,1.58,11.33,3.36,14.75,6.08a1.08,1.08,0,0,1,.38,1.24A1.27,1.27,0,0,1,225.08,416.74Zm-43.76-4.6a38.76,38.76,0,0,0,13.93,3.25l29.82.51a.44.44,0,0,0,.44-.24.25.25,0,0,0-.11-.3c-3.29-2.62-9.23-4.38-14.47-5.93-4.49-1.33-8.73-2.59-10.77-4.22h0a8.55,8.55,0,0,0-6.82-2C187.57,404.12,182.56,410.46,181.32,412.14Z" style="fill:#263238"></path><path d="M163.71,413.92c-8.67-4.39-11.27-10.6-18-8.16s-7.39,6.84-8.37,9.84,5.3,5.24,8.93,5.52,5.86-1.54,14.38.84S175.07,419.67,163.71,413.92Z" style="fill:#263238"></path><path d="M165,423a16.69,16.69,0,0,1-4.45-.65c-5.76-1.61-8.53-1.28-11-1a16.5,16.5,0,0,1-3.32.17c-2.71-.21-7.43-1.58-9-3.84a2.47,2.47,0,0,1-.35-2.23c.1-.3.19-.62.29-1,.87-2.91,2.07-6.89,8.34-9.15,4.58-1.66,7.43.54,11,3.33a44.4,44.4,0,0,0,7.32,4.85c4.84,2.45,7.16,5.06,6.34,7.15C169.66,422.19,167.63,423,165,423Zm-12.17-2.71a29.19,29.19,0,0,1,7.94,1.25c4.62,1.29,8.13.4,8.73-1.15.49-1.25-.82-3.51-5.94-6.11h0a43.88,43.88,0,0,1-7.45-4.93c-3.67-2.83-6.1-4.7-10.25-3.21-5.87,2.13-6.95,5.72-7.82,8.61-.1.34-.19.66-.3,1a1.65,1.65,0,0,0,.26,1.5c1.3,1.95,5.66,3.27,8.31,3.47a15.36,15.36,0,0,0,3.17-.16A27.77,27.77,0,0,1,152.79,420.3Z" style="fill:#263238"></path><path d="M168.17,195.68c14-4.46-8-20.36-19.33-6.35-10.19,12.59-3.17,17.66,3.81,13.82S164.53,196.84,168.17,195.68Z" style="fill:#82D6DF"></path><path d="M223.2,159.93c6.43-1.52-26,16-33.9,14.5C200.18,171.35,212.17,164.84,223.2,159.93Z" style="fill:#82D6DF"></path><path d="M180.41,170a1.5,1.5,0,1,0,.69-2A1.5,1.5,0,0,0,180.41,170Z" style="fill:#82D6DF"></path><path d="M181.29,169a.5.5,0,0,1-.16-1,2.11,2.11,0,0,0,1.35-1.8.5.5,0,1,1,1,.08,3.1,3.1,0,0,1-2,2.67Z" style="fill:#82D6DF"></path><path d="M135.47,240.78c-3.51,22.32,8.68,78.31-6.61,109.71s-9.51-56.81-19.42-65.49S135.47,240.78,135.47,240.78Z" style="fill:#263238"></path><path d="M123.28,357.84a1.84,1.84,0,0,1-.41,0c-4.16-.78-5.48-13.61-7.15-34.64-1.28-16.05-2.73-34.23-6.69-37.7a5.84,5.84,0,0,1-1.94-4.42c-.38-12.55,26.79-39.55,27.94-40.7l1.34-1.32-.29,1.86c-1.2,7.65-.55,19.26.21,32.7,1.42,25.17,3.19,56.5-6.88,77.18C127.07,355.57,125.11,357.84,123.28,357.84Zm11.33-115.3c-5.51,5.64-26.6,28-26.28,38.46a4.59,4.59,0,0,0,1.51,3.53c4.34,3.8,5.69,20.67,7.11,38.53,1.23,15.4,2.62,32.86,6.15,33.53.72.13,2.35-.52,5.2-6.37,9.93-20.39,8.17-51.54,6.75-76.57C134.35,261.17,133.73,250.26,134.61,242.54Z" style="fill:#263238"></path></g><g id="freepik--Penguin-2--inject-57"><path d="M283.1,204.2c-2,26.89-19.07,92.1-4.42,131.13s17.66-66.46,30.42-75.67S283.1,204.2,283.1,204.2Z" style="fill:#263238"></path><path d="M284.74,344.7c-2.27,0-4.42-2.91-6.75-9.11-11.1-29.56-4.19-73.44.84-105.48,1.64-10.38,3.05-19.34,3.53-26l.14-1.82,1.17,1.4c1.25,1.49,30.51,36.62,28.66,51.49a7,7,0,0,1-2.8,5c-5.1,3.68-8.85,25.13-12.17,44.05C293,329.12,290,344.22,285,344.69Zm-1.05-138.62c-.59,6.46-1.9,14.77-3.39,24.26-5,31.88-11.88,75.54-.92,104.73,2.73,7.28,4.6,8.23,5.47,8.15,4.27-.4,7.87-21,11-39.16,3.69-21.07,7.18-41,12.76-45a5.51,5.51,0,0,0,2.2-4C312.43,242.42,289.2,212.88,283.69,206.08Z" style="fill:#263238"></path><path d="M281.88,206.16c-5.18,86.17,8,191.58,14.37,204.84,2.89,6,15.78.67,21.11-1.11,13.34,2,43.33,4.55,68.89,4.55,28.45,0,42.54-.67,40-2.22s-22.92-7.89-23.11-15.22c-.67-26.22,8.83-49.32,9.89-107.67C414,234.17,397,199,385.7,180c-14.38-24.1-37-44.67-54.67-54s-43.67-17.67-54.17-2.83c-9.57,13.52-22.6,8.76-33.29,17.53a1.53,1.53,0,0,0,1,2.71c13.2-.34,35.32,3.24,44.62,12.09C285.36,166.67,283.61,177.37,281.88,206.16Z" style="fill:#fff"></path><path d="M386.25,414.94c-26.51,0-56.15-2.65-68.84-4.54l-1.76.61c-6.38,2.24-17.07,6-19.85.21-6.51-13.53-19.53-120.11-14.42-205.09l.5,0-.5,0c1.64-27.4,3.28-38.83,7.24-50.49-9.38-8.63-31.32-12.06-44-11.73a2,2,0,0,1-1.34-3.6c4.62-3.79,9.71-5.11,14.62-6.38,6.78-1.76,13.18-3.42,18.58-11.05,12.56-17.75,45.13-2.44,54.81,2.68,16.38,8.65,39.7,28.76,54.86,54.18,19.2,32.18,28.16,68,27.41,109.6-.6,33-3.88,54.64-6.52,72.06-2,13.52-3.66,24.21-3.37,35.59.14,5.45,13,10.66,19.14,13.17a34.41,34.41,0,0,1,3.73,1.63c.58.35.56.75.51.95C426.78,413.57,426.4,414.94,386.25,414.94Zm-68.93-5.56h.12c12.59,1.89,42.27,4.55,68.81,4.55,29.16,0,37.81-.73,39.56-1.4-.61-.32-1.86-.83-3.4-1.46-6.86-2.78-19.61-8-19.77-14.07-.29-11.47,1.33-22.19,3.38-35.76,2.64-17.39,5.91-39,6.51-71.93.75-41.37-8.17-77-27.26-109.06C370.2,155,347.05,135,330.8,126.44c-9.5-5-41.44-20.06-53.53-3-5.61,7.93-12.49,9.71-19.14,11.44-4.82,1.24-9.79,2.53-14.24,6.19a1,1,0,0,0-.31,1.15,1,1,0,0,0,1,.67c13-.34,35.52,3.23,45,12.23l.23.22-.1.3c-4,11.66-5.64,23-7.3,50.53-5.1,84.83,7.85,191.13,14.33,204.59,2.4,5,12.95,1.28,18.62-.71l1.88-.66Zm108.77,3.33Z" style="fill:#263238"></path><path d="M289.2,155.5c-3.84,11.17-5.59,21.87-7.32,50.66,0,0,4,13.17,42.82,8.51s45.12-31.17,45.12-31.17-11.62-43.67-80.62-28" style="fill:#263238;opacity:0.1"></path><path d="M386.25,414.44c28.45,0,42.54-.67,40-2.22s-22.92-7.89-23.11-15.22c-.67-26.22,8.83-49.32,9.89-107.67C414,234.17,397,199,385.7,180c-14.38-24.1-37-44.67-54.67-54s-43.67-17.67-54.17-2.83c-9.57,13.52-22.6,8.76-33.29,17.53a1.53,1.53,0,0,0,1,2.71c13.2-.34,35.32,3.24,44.62,12.09,0,0,6.6,5.15,25.63,1.95,19.22-3.23,38.74,5.58,48.11,22.67a35.89,35.89,0,0,1,4,11.55c7.61,47.5,39.33,50.66,37.11,95.77s-20,97.95-12.67,112.45S386.25,414.44,386.25,414.44Z" style="fill:#263238"></path><path d="M386.25,414.94h0v-1s4.31-.06,6.11-3c1.46-2.39,1-6-1.44-10.82-4.19-8.27-.53-27.84,4.11-52.63,3.52-18.86,7.52-40.24,8.5-60.06,1.18-23.94-7.44-36.23-16.57-49.24-8-11.35-17-24.2-20.54-46.43a35,35,0,0,0-3.92-11.39c-9.14-16.66-28.26-25.66-47.59-22.41-19,3.2-25.75-1.84-26-2.06-9.28-8.82-31.49-12.31-44.3-12a2,2,0,0,1-1.34-3.6c4.62-3.79,9.71-5.11,14.62-6.38,6.78-1.76,13.18-3.42,18.58-11.05,12.56-17.75,45.13-2.44,54.81,2.68,16.38,8.65,39.7,28.76,54.86,54.18,19.2,32.18,28.16,68,27.41,109.6-.6,33-3.88,54.64-6.52,72.06-2,13.52-3.66,24.21-3.37,35.59.14,5.45,13,10.66,19.14,13.17a34.41,34.41,0,0,1,3.73,1.63c.58.35.56.75.51.95-.24.83-.62,2.2-40.77,2.2ZM322.77,156.29a46.11,46.11,0,0,1,40.61,23.59,36.21,36.21,0,0,1,4,11.71c3.53,22,12.09,34.21,20.37,46,9.23,13.16,17.94,25.59,16.75,49.87-1,19.89-5,41.3-8.52,60.2-4.42,23.62-8.23,44-4.2,52,2.59,5.12,3.06,9.09,1.4,11.8a6.67,6.67,0,0,1-2.8,2.48c25.83-.07,33.73-.76,35.4-1.4-.61-.32-1.86-.83-3.4-1.46-6.86-2.78-19.61-8-19.77-14.07-.29-11.47,1.33-22.19,3.38-35.76,2.64-17.39,5.91-39,6.51-71.93.75-41.37-8.17-77-27.26-109.06C370.2,155,347.05,135,330.8,126.44c-9.5-5-41.44-20.06-53.53-3-5.61,7.93-12.49,9.71-19.14,11.44-4.82,1.24-9.79,2.53-14.24,6.19a1,1,0,0,0-.31,1.15,1,1,0,0,0,1,.67c13-.34,35.52,3.23,45,12.23,0,0,6.69,4.94,25.21,1.82A48.5,48.5,0,0,1,322.77,156.29ZM426.09,412.71Z" style="fill:#263238"></path><path d="M293.85,401.45c-5.18,4.14-22.76,6.24-30.13,12.12-.71.56-.24,1.55.72,1.54L300,414.5a46.54,46.54,0,0,0,17.38-4.19S305.23,392.35,293.85,401.45Z" style="fill:#263238"></path><path d="M264.41,415.61a1.5,1.5,0,0,1-1.45-1,1.27,1.27,0,0,1,.45-1.47c4.08-3.26,11.27-5.38,17.6-7.26,5.27-1.56,10.24-3,12.53-4.86a11.16,11.16,0,0,1,8.91-2.55c8.33,1.26,15.09,11.1,15.37,11.52l.33.48-.52.25A47.52,47.52,0,0,1,300,415l-35.6.61Zm29.44-14.16.31.39c-2.44,2-7.5,3.45-12.86,5C275.05,408.73,268,410.83,264,414a.32.32,0,0,0-.13.36.52.52,0,0,0,.53.29L300,414a46,46,0,0,0,16.63-3.89c-1.48-2-7.47-9.57-14.35-10.61a10.23,10.23,0,0,0-8.14,2.34Z" style="fill:#263238"></path><path d="M337.67,412.24C348,407,351.13,399.59,359.2,402.5s8.82,8.16,10,11.75-6.33,6.25-10.66,6.58-7-1.83-17.17,1S324.12,419.1,337.67,412.24Z" style="fill:#263238"></path><path d="M336.19,423.09c-3.19,0-5.62-1-6.32-2.76-1-2.5,1.79-5.61,7.58-8.54a52.5,52.5,0,0,0,8.74-5.78c4.31-3.33,7.71-6,13.18-4,7.48,2.7,8.91,7.46,9.95,10.93.12.39.23.77.35,1.13a3,3,0,0,1-.43,2.66c-1.81,2.7-7.44,4.33-10.67,4.58a20,20,0,0,1-4-.19c-2.92-.35-6.23-.74-13.1,1.17A19.84,19.84,0,0,1,336.19,423.09Zm19.54-20.75c-3.15,0-5.62,1.9-8.93,4.46a53.58,53.58,0,0,1-8.9,5.89c-6.11,3.09-7.67,5.79-7.09,7.28.72,1.86,4.91,2.92,10.42,1.38,7.07-2,10.62-1.55,13.48-1.21a17.82,17.82,0,0,0,3.78.19c3.16-.24,8.37-1.81,9.92-4.14a2,2,0,0,0,.31-1.79c-.12-.37-.24-.75-.36-1.15-1-3.45-2.32-7.75-9.33-10.28A9.81,9.81,0,0,0,355.73,402.34Z" style="fill:#263238"></path><path d="M327,153c-8.44,4.72,1.59-29.46,18.33-15.94,15.05,12.16,10.71,20.63,1.25,19.64S331,150.74,327,153Z" style="fill:#82D6DF"></path><path d="M245.61,141.14c-7.73,1.56,36.21,4.37,44-1.17C276.28,142.06,260,141,245.61,141.14Z" style="fill:#82D6DF"></path><path d="M299.86,129.46a1.79,1.79,0,1,1-1.79-1.79A1.79,1.79,0,0,1,299.86,129.46Z" style="fill:#82D6DF"></path><path d="M371.39,205.56c4.19,26.63-10.36,93.47,7.89,131s11.35-67.82,23.19-78.18S371.39,205.56,371.39,205.56Z" style="fill:#263238"></path><path d="M385.94,345.3c-2.19,0-4.53-2.71-7.32-8.45-12-24.7-9.91-62.09-8.21-92.14.9-16,1.69-29.9.25-39l-.35-2.22,1.6,1.58c1.38,1.36,33.81,33.6,33.36,48.58a7,7,0,0,1-2.32,5.28c-4.73,4.14-6.46,25.85-8,45-2,25.11-3.57,40.42-8.54,41.36A2.72,2.72,0,0,1,385.94,345.3ZM372.42,207.65c1,9.22.3,22.25-.54,37.15-1.69,29.87-3.79,67.05,8.07,91.4,3.4,7,5.35,7.76,6.2,7.6,4.22-.8,5.88-21.64,7.34-40,1.7-21.32,3.31-41.46,8.49-46a5.51,5.51,0,0,0,1.81-4.21C404.17,241,379,214.38,372.42,207.65Z" style="fill:#263238"></path></g><g id="freepik--Penguin-3--inject-57"><path d="M279,310.75c-8.71-1.05-33.07-11.6-45.2-6.56s5.6,8,11.48,13.37c8.16,7.42,21.7,13.71,21.7,13.71" style="fill:#fff"></path><path d="M266.79,331.72c-.14-.06-13.71-6.4-21.82-13.79-1.89-1.72-5.05-3.19-8.1-4.62-4.16-1.94-7.75-3.61-7.7-5.77,0-1.35,1.44-2.57,4.46-3.82,8.74-3.62,23.66.68,34.55,3.82a85.75,85.75,0,0,0,10.9,2.71l-.12,1a84.92,84.92,0,0,1-11-2.75c-10.75-3.1-25.48-7.34-33.9-3.85-3.15,1.31-3.83,2.3-3.84,2.91,0,1.51,3.6,3.21,7.12,4.85,3.12,1.45,6.35,2.95,8.35,4.78,8,7.28,21.44,13.56,21.57,13.62Z" style="fill:#263238"></path><path d="M225.68,422.11c-20-.44-22-30.44-9.11-51.33S255.3,304.67,257.3,296s5.42-21.37,19.5-23.83c17.16-3,28.69,9.25,27.5,24.83-.67,8.67-3.67,9.83-2.84,16.67s-.21,19.82-2.66,28.66c-5.5,19.84,10.5,57.17-1.17,79.78C264.3,422.11,238.24,422.39,225.68,422.11Z" style="fill:#fff"></path><path d="M242.54,422.73c-7,0-12.68,0-16.87-.12a16.07,16.07,0,0,1-14.41-8.88c-5.91-10.87-3.86-29,4.89-43.21,12.85-20.84,38.69-66.12,40.66-74.63,1.74-7.55,5-21.61,19.9-24.22,8.07-1.41,15.43.46,20.71,5.26s8,12.14,7.37,20.11a32,32,0,0,1-1.81,8.57,15.69,15.69,0,0,0-1,8c.88,7.22-.35,20.44-2.68,28.86s-.76,20,.9,32.27c2.29,17,4.65,34.5-2.11,47.6l-.14.27h-.3c-12.41,0-23.81,0-33.87.07C255.84,422.71,248.7,422.73,242.54,422.73Zm39.32-150.51a28.68,28.68,0,0,0-5,.44c-14.26,2.49-17.41,16.13-19.1,23.45-2,8.75-27.55,53.49-40.78,74.93-8.43,13.66-10.52,31.81-4.86,42.21a15.12,15.12,0,0,0,13.56,8.36c7.87.18,21.19.13,38.05.07,10,0,21.28-.07,33.57-.07,6.44-12.79,4.12-30,1.87-46.74-1.67-12.39-3.25-24.1-.88-32.67,2.31-8.31,3.52-21.35,2.66-28.47a16.77,16.77,0,0,1,1.06-8.44A31.07,31.07,0,0,0,303.8,297c.59-7.66-2-14.69-7.05-19.29A21.72,21.72,0,0,0,281.86,272.22Z" style="fill:#263238"></path><path d="M304.3,297c-.67,8.67-3.67,9.83-2.84,16.67s-.21,19.82-2.66,28.66c-5.5,19.84,10.5,57.17-1.17,79.78-33.33,0-59.39.28-71.95,0-5.38-11.78,34.12-16.94,32.45-42.44s27.9-37.34,19.62-56.17-13.05-36.33,0-40.67,25.55,3.5,26.55,14.17" style="fill:#263238;opacity:0.1"></path><path d="M256.28,415.14c-7.17-1.67-10.21-5.77-14.74-2.75s-7.46,7.44-7.63,9.82,8.1,1.83,10.82,1.38,4-2.19,10.73-2S265.68,417.31,256.28,415.14Z" style="fill:#263238"></path><path d="M239.33,424.49c-2.24,0-4.48-.25-5.42-1.11a1.43,1.43,0,0,1-.5-1.2c.19-2.58,3.18-7.1,7.85-10.21,3.16-2.1,5.69-1,8.9.45a34,34,0,0,0,6.23,2.23c5.63,1.3,6.24,3.26,6.1,4.32-.24,1.9-3.27,3.25-7.05,3.14a18.28,18.28,0,0,0-8.18,1.24,12.67,12.67,0,0,1-2.45.73A37.61,37.61,0,0,1,239.33,424.49Zm5.5-12.68a5.27,5.27,0,0,0-3,1c-4.36,2.9-7.24,7.16-7.41,9.44a.41.41,0,0,0,.18.39c1.28,1.18,7.23.92,10.06.46a11.74,11.74,0,0,0,2.26-.69,19.46,19.46,0,0,1,8.57-1.3c3.41.11,5.87-1.09,6-2.27.12-.93-1.21-2.26-5.33-3.22h0a34.35,34.35,0,0,1-6.41-2.29A12.85,12.85,0,0,0,244.83,411.81Z" style="fill:#263238"></path><path d="M306.81,418.26c-6.89-2.63-9.33-7.1-14.23-4.73s-8.4,6.34-8.91,8.68,7.78,2.92,10.53,2.85,4.3-1.62,10.91-.5S315.81,421.7,306.81,418.26Z" style="fill:#263238"></path><path d="M293.79,425.56c-2.27,0-8.74-.34-10.27-2.19a1.45,1.45,0,0,1-.34-1.26c.55-2.52,4.13-6.59,9.18-9,3.41-1.65,5.77-.19,8.76,1.65A33.29,33.29,0,0,0,307,417.8c5.4,2.06,5.74,4.08,5.46,5.11-.51,1.85-3.7,2.77-7.42,2.14a18.22,18.22,0,0,0-8.27.12,13.64,13.64,0,0,1-2.53.39Zm1.47-12.2a5.45,5.45,0,0,0-2.46.62c-4.72,2.28-8.16,6.1-8.64,8.34a.45.45,0,0,0,.13.41c1.11,1.34,7,1.9,9.9,1.83a11.87,11.87,0,0,0,2.34-.37,19.39,19.39,0,0,1,8.66-.12c3.37.57,6-.28,6.28-1.43.25-.9-.89-2.4-4.84-3.91a34.25,34.25,0,0,1-6-3.15C298.55,414.32,297,413.36,295.26,413.36Z" style="fill:#263238"></path><path d="M304.3,297c1.19-15.58-10.34-27.83-27.5-24.83-14.08,2.46-17.5,15.16-19.5,23.83-.06,5.11,1.5,9.44,8.38,11.78s10.12-3.89,5.89-7.89-3.77-16.11,4.67-20,21.73,3.79,18,14c-1.89,5.17-6,3.89-2.78,8.44s10.64,4.36,10.64,4.36,7.92-4.13,13-3C314,299.44,304.3,297,304.3,297Z" style="fill:#263238"></path><path d="M268.56,308.8a9.57,9.57,0,0,1-3-.55c-7.82-2.65-8.77-7.94-8.72-12.26v-.1c1.74-7.55,5-21.61,19.9-24.22,8.07-1.41,15.43.46,20.71,5.26s7.89,11.88,7.4,19.69c1.91.53,9.74,2.93,10.79,6.92l.21.79-.8-.17c-4.87-1.06-12.61,2.94-12.69,3l-.1.05h-.11c-.32,0-7.73.15-11.07-4.57-2.07-2.93-1.35-3.84.11-5.19a8.78,8.78,0,0,0,2.61-3.71A9.46,9.46,0,0,0,291,283.18c-4-3.68-10.11-4.88-14.54-2.84a12.35,12.35,0,0,0-6.79,9.5c-.64,3.91.27,7.8,2.26,9.69s2.64,4.72,1.37,6.83A5.32,5.32,0,0,1,268.56,308.8Zm-10.77-12.74c0,4.21.91,8.82,8,11.24,3.5,1.19,5.7,0,6.59-1.46,1-1.69.54-3.94-1.2-5.59-2.22-2.1-3.25-6.35-2.55-10.57A13.3,13.3,0,0,1,276,279.43c4.78-2.2,11.35-.93,15.63,3a10.39,10.39,0,0,1,3,11.61,9.68,9.68,0,0,1-2.87,4.1c-1.23,1.14-1.64,1.52,0,3.88,2.82,4,9.19,4.15,10.11,4.15,1-.48,7.46-3.68,12.35-3.16-1.92-3.43-10.07-5.52-10.16-5.55l-.41-.1,0-.42c.59-7.66-2-14.69-7.05-19.29s-12.11-6.37-19.87-5C262.65,275.15,259.49,288.72,257.79,296.06Z" style="fill:#263238"></path><path d="M283.4,291.81c.14,1.56-1.14,1.46-2.7,1.6s-2.81.45-2.94-1.11a2.83,2.83,0,1,1,5.64-.49Z" style="fill:#263238"></path><path d="M279.18,293.86a1.82,1.82,0,0,1-1.22-.35,1.58,1.58,0,0,1-.53-1.18,3.07,3.07,0,0,1,.73-2.31,3.1,3.1,0,0,1,2.15-1.12,3.15,3.15,0,0,1,3.42,2.88,1.63,1.63,0,0,1-.31,1.26,3.14,3.14,0,0,1-2.21.66l-1,.09C279.87,293.82,279.51,293.86,279.18,293.86Zm1.41-4.31h-.23a2.5,2.5,0,0,0-2.27,2.71,1,1,0,0,0,.29.73,2.77,2.77,0,0,0,1.8.12l1-.08c.79-.06,1.48-.11,1.75-.43a1,1,0,0,0,.16-.77h0a2.5,2.5,0,0,0-2.48-2.29Z" style="fill:#263238"></path><path d="M256.63,308.41c-8.38,2.58-34.92,2.83-44,12.36s8.37,5.05,15.92,7.55C239.05,331.8,254,332,254,332" style="fill:#fff"></path><path d="M254,332.54c-.15,0-15.13-.29-25.54-3.74-2.43-.81-5.91-.87-9.27-.93-4.59-.08-8.55-.16-9.39-2.15-.52-1.25.28-2.93,2.53-5.3,6.52-6.86,21.9-9,33.13-10.55a85.55,85.55,0,0,0,11.05-1.93l.3.95a85.14,85.14,0,0,1-11.22,2c-11.08,1.53-26.26,3.63-32.54,10.24-2.35,2.48-2.56,3.67-2.33,4.23.59,1.39,4.6,1.46,8.49,1.53,3.43.06,7,.13,9.56,1,10.27,3.41,25.1,3.69,25.25,3.69Z" style="fill:#263238"></path></g></svg>